<svg xmlns="http://www.w3.org/2000/svg" width="460" height="215" viewBox="0 0 460 215"><rect width="100%" height="100%" fill="#DDDDDD"/><path fill="#999999" d="M101.21 112.93h13.42V98.5q0-2.04.28-4.51zm19.98 0h5.55v4.36q0 .61-.4 1.05-.39.44-1.12.44h-4.03v10.77h-6.56v-10.77h-18.6q-.76 0-1.34-.47t-.74-1.17l-.79-3.82 20.89-27.9h7.14zm36.11-27.48-13.08 16.01-1.53 1.89q1.28-.64 2.76-.99t3.19-.35q2.5 0 4.87.82 2.36.83 4.16 2.49t2.9 4.13q1.09 2.47 1.09 5.77 0 3.08-1.12 5.77-1.13 2.7-3.18 4.72-2.04 2.01-4.92 3.17t-6.36 1.16q-3.54 0-6.35-1.13-2.8-1.13-4.78-3.16-1.99-2.03-3.04-4.88t-1.05-6.33q0-3.11 1.26-6.39 1.27-3.27 3.92-6.81l10.53-14.12q.55-.74 1.6-1.25 1.05-.52 2.42-.52zm-11.37 38.43q1.8 0 3.31-.61 1.5-.61 2.59-1.71 1.08-1.1 1.69-2.58t.61-3.22q0-1.89-.58-3.4t-1.65-2.56q-1.06-1.05-2.56-1.6-1.49-.55-3.29-.55t-3.27.61q-1.46.61-2.5 1.69-1.03 1.09-1.61 2.57t-.58 3.18q0 1.83.5 3.34t1.5 2.58q.99 1.07 2.45 1.66 1.46.6 3.39.6m51.6-16.38q0 5.76-1.23 10.02-1.24 4.25-3.42 7.03-2.18 2.77-5.15 4.13-2.98 1.36-6.42 1.36-3.45 0-6.39-1.36-2.95-1.36-5.11-4.13-2.17-2.78-3.39-7.03-1.22-4.26-1.22-10.02 0-5.8 1.22-10.04t3.39-7.01q2.16-2.78 5.11-4.13 2.94-1.36 6.39-1.36 3.44 0 6.42 1.36 2.97 1.35 5.15 4.13 2.18 2.77 3.42 7.01 1.23 4.24 1.23 10.04m-7.78 0q0-4.79-.7-7.93t-1.87-5q-1.18-1.86-2.7-2.61-1.53-.75-3.17-.75-1.62 0-3.13.75t-2.67 2.61-1.84 5q-.69 3.14-.69 7.93t.69 7.93q.68 3.14 1.84 5t2.67 2.61 3.13.75q1.64 0 3.17-.75 1.52-.75 2.7-2.61 1.17-1.86 1.87-5t.7-7.93m56.22 11.95-4 3.94-10.34-10.34-10.43 10.4-4-3.93 10.44-10.47-9.95-9.94 3.97-3.96 9.94 9.94 9.88-9.88 4.03 3.96-9.91 9.91zm36.72 3.09H294q1.22 0 1.94.68.72.69.72 1.82v4.51H266.4v-2.5q0-.76.32-1.6t1.02-1.51l13.39-13.42q1.68-1.71 3.01-3.27 1.32-1.55 2.21-3.08.88-1.52 1.36-3.09.47-1.57.47-3.31 0-1.59-.46-2.79-.46-1.21-1.3-2.03-.83-.82-2.01-1.24-1.17-.41-2.64-.41-1.34 0-2.48.38-1.15.39-2.03 1.07-.89.69-1.5 1.6-.61.92-.91 2.02-.52 1.4-1.34 1.86-.83.45-2.38.21l-3.97-.7q.46-3.17 1.77-5.57 1.31-2.39 3.28-3.99t4.52-2.41q2.54-.81 5.47-.81 3.05 0 5.58.9t4.33 2.55q1.8 1.64 2.81 3.96 1 2.32 1 5.16 0 2.43-.71 4.51-.72 2.07-1.92 3.96-1.21 1.89-2.82 3.66-1.62 1.77-3.39 3.6l-9.94 10.16q1.43-.43 2.85-.66 1.42-.22 2.7-.22m40.41 1.37h7.93v5.64h-24.4v-5.64h8.94V98.2q0-1.53.09-3.15l-6.35 5.31q-.54.43-1.08.54-.53.1-1 .01-.48-.09-.84-.32-.37-.23-.55-.5l-2.38-3.27 13.45-11.43h6.19zm25.68-31.63-1.55 9.18q1.46-.31 2.8-.44 1.34-.14 2.59-.14 3.48 0 6.13 1.04 2.66 1.03 4.46 2.86t2.71 4.29q.92 2.45.92 5.29 0 3.51-1.24 6.41-1.23 2.89-3.43 4.95t-5.2 3.19-6.54 1.13q-2.08 0-3.94-.43t-3.49-1.14q-1.63-.72-3.02-1.65t-2.48-1.97l2.31-3.2q.74-1.04 1.93-1.04.76 0 1.55.49t1.82 1.07q1.02.58 2.41 1.07 1.38.48 3.34.48 2.07 0 3.66-.67 1.58-.67 2.63-1.87 1.06-1.21 1.59-2.87t.53-3.61q0-3.6-2.09-5.63t-6.17-2.03q-3.14 0-6.44 1.16l-4.69-1.34 3.66-21.41h21.77v3.2q0 1.62-1 2.62-1.01 1.01-3.42 1.01z"/></svg>